<?xml version="1.0" encoding="UTF-8"?>
<svg width="550px" height="550px" viewBox="0 0 550 550" version="1.1" xmlns="http://www.w3.org/2000/svg" xmlns:xlink="http://www.w3.org/1999/xlink">
    <title>Hubspot</title>
    <g id="Page-1" stroke="none" stroke-width="1" fill="none" fill-rule="evenodd">
        <g id="Fixtures-Copy-6" transform="translate(-100, -100)">
            <g id="Hubspot" transform="translate(100, 100)">
                <path d="M275,0 C426.878306,0 550,123.121694 550,275 C550,426.878306 426.878306,550 275,550 C123.121694,550 0,426.878306 0,275 C0,123.121694 123.121694,0 275,0 Z" id="Rectangle" fill="#0068FF"></path>
                <g id="Group-4" transform="translate(175, 138)" fill="#FFFFFF" fill-rule="nonzero">
                    <path d="M180.875976,93.426965 L180.88533,93.388747 L180.895535,93.3505298 C182.412574,87.4378282 183.356471,79.5097806 183.700867,69.7855021 L184.321628,52.2775534 C169.221816,21.4825882 137.76196,0.698959088 101.530743,0.0271770239 C100.991616,0.00849281999 100.451638,0 99.9125114,0 C99.419303,0 98.934599,0.00849281999 98.4405412,0.017834922 C67.6686246,0.794078669 42.9674163,25.957455 42.9674163,56.8730183 C42.9674163,57.3664512 42.9759199,57.8505419 42.9852738,58.3431255 C42.9946278,58.8272162 43.0124853,59.3019649 43.0396967,59.7767135 C44.6026554,101.035682 79.540477,130.95334 111.860896,160.908365 C113.298002,160.578843 114.727453,160.2162 116.145851,159.818736 C148.250279,150.816347 173.053531,125.376954 180.875976,93.426965" id="Path"></path>
                    <path d="M92.3060561,170.452596 C91.5305291,170.464486 90.7541521,170.47213 89.980326,170.5061 C89.4480018,170.529031 88.6359093,170.552811 87.5729618,170.552811 C82.6459853,170.552811 72.3149826,170.035598 59.386985,166.482202 C46.9853593,163.074034 30.4382369,155.125604 20.8011261,155.125604 C-13.5363425,155.125604 4.99126438,204.753397 4.99126438,204.753397 C17.9762359,244.570285 55.4591799,273 99.6837645,273 C125.345878,273 148.859135,263.431989 166.630774,247.617509 C181.267141,234.579331 192.008867,217.304936 196.817644,197.66529 C206.124815,161.444262 192.054787,75.2344955 192.054787,75.2344955 C191.707841,73.4815768 191.314125,71.7473429 190.87534,70.0394372 C190.537748,79.5811203 189.614259,88.2548374 187.849765,95.1297752 C179.356387,129.816151 152.40598,157.098485 118.087219,166.7217 C109.862554,169.023254 101.21526,170.315012 92.3060561,170.452596" id="Path"></path>
                </g>
            </g>
        </g>
    </g>
</svg>